<svg xmlns="http://www.w3.org/2000/svg" viewBox="0 0 72 72"><g fill="none"><path fill="#FFB730" d="M19 59.26h35.897V14H26.804L19 21.804z"/><path fill="#FFD991" d="M26.804 21.804V14L19 21.804z"/><path fill="#F79D1E" d="m42.383 47.98-1.143-7.448h.78V35.85h-6.242v4.682h.78l-1.145 7.448a2.34 2.34 0 0 0 2.31 2.697h2.347a2.341 2.341 0 0 0 2.313-2.697Z"/><path fill="#DEDEDE" d="m40.435 47.98-1.146-7.448h.78V35.85h-6.242v4.682h.78l-1.145 7.448a2.341 2.341 0 0 0 2.316 2.697h2.34a2.34 2.34 0 0 0 2.317-2.697Z"/><path fill="#FD882F" d="M40.07 17.902v-1.56h-2.341V14h-1.561v2.341h-2.341v1.56h2.34v1.562h-2.34v1.56h2.34v1.561h-2.34v1.56h2.34v1.561h-2.34v1.561h2.34v1.56h-2.34v1.562h2.34v1.56h-2.34v1.561h2.34v4.682h1.562V33.51h2.34v-1.56h-2.34v-1.561h2.34v-1.561h-2.34v-1.56h2.34v-1.562h-2.34v-1.56h2.34v-1.562h-2.34v-1.56h2.34v-1.562h-2.34v-1.56z"/><path fill="#C7C7C7" d="M36.168 46.775h1.56v1.56h-1.56z"/><path fill="#F79D1E" d="M19 21.804h6.243v1.56H19z"/><path fill="#C7C7C7" d="m39.53 42.093-.24-1.56h-4.683l-.24 1.56z"/><path fill="#F79D1E" d="M36.168 35.85h1.56v2.341h-1.56z"/></g></svg>